<?xml version="1.0" encoding="UTF-8"?>
<svg version="1.1" xmlns="http://www.w3.org/2000/svg" width="174" height="73">
<path d="M0 0 C3.96692797 0.38285974 5.83740378 2.48951331 8.546875 5.25390625 C9.39121094 6.10791016 10.23554688 6.96191406 11.10546875 7.84179688 C11.97816406 8.73962891 12.85085937 9.63746094 13.75 10.5625 C14.63816406 11.46419922 15.52632812 12.36589844 16.44140625 13.29492188 C18.63448315 15.52337098 20.82026044 17.75851593 23 20 C20.70821345 25.44713342 16.20138563 29.208343 12.09667969 33.32885742 C10.62434584 34.81315947 9.1716937 36.31510259 7.71875 37.81835938 C6.79320312 38.75099609 5.86765625 39.68363281 4.9140625 40.64453125 C4.0679541 41.50409424 3.2218457 42.36365723 2.35009766 43.24926758 C0 45 0 45 -2.30712891 44.7722168 C-4 44 -4 44 -4.74609375 42.265625 C-5 40 -5 40 -3.34765625 37.859375 C-2.59355469 37.16328125 -1.83945313 36.4671875 -1.0625 35.75 C-0.31097656 35.04359375 0.44054687 34.3371875 1.21484375 33.609375 C1.80394531 33.07828125 2.39304687 32.5471875 3 32 C1.515 31.505 1.515 31.505 0 31 C-0.33 31.99 -0.66 32.98 -1 34 C-1.99 34 -2.98 34 -4 34 C-4.33 33.34 -4.66 32.68 -5 32 C-12.73593847 31.5475414 -19.96223718 33.59636528 -27.45898438 35.31054688 C-28.49732422 35.53935547 -29.53566406 35.76816406 -30.60546875 36.00390625 C-31.54543701 36.21861572 -32.48540527 36.4333252 -33.45385742 36.65454102 C-36.04712077 37.00639332 -37.57802504 36.95524374 -40 36 C-42.92900057 32.33874929 -43.32215416 29.6175429 -43 25 C-44.65 25.33 -46.3 25.66 -48 26 C-48 27.65 -48 29.3 -48 31 C-48.89460938 30.95359375 -49.78921875 30.9071875 -50.7109375 30.859375 C-57.91845742 30.64422515 -63.20644782 31.03995229 -69.734375 34.109375 C-73.26387969 35.49683546 -76.25239346 35.27760048 -80 35 C-80.495 33.02 -80.495 33.02 -81 31 C-84.63 31 -88.26 31 -92 31 C-92 29.35 -92 27.7 -92 26 C-93.48199902 26.44909061 -94.96055236 26.90956564 -96.4375 27.375 C-97.26121094 27.63023438 -98.08492187 27.88546875 -98.93359375 28.1484375 C-101.17798016 28.80882227 -101.17798016 28.80882227 -102 31 C-103.77049689 31.05410687 -105.54146849 31.09284119 -107.3125 31.125 C-108.79169922 31.15980469 -108.79169922 31.15980469 -110.30078125 31.1953125 C-113 31 -113 31 -116 29 C-117.76804332 26.43633719 -118.05165026 25.37876854 -117.625 22.25 C-117.41875 21.5075 -117.2125 20.765 -117 20 C-115.35 19.67 -113.7 19.34 -112 19 C-112.33 17.35 -112.66 15.7 -113 14 C-110.625 13.8125 -110.625 13.8125 -108 14 C-107.01 15.485 -107.01 15.485 -106 17 C-105.01 16.67 -104.02 16.34 -103 16 C-102.67 15.34 -102.34 14.68 -102 14 C-100.09375 13.54296875 -100.09375 13.54296875 -97.5 13.1875 C-91.53507504 12.22843363 -85.9178076 10.56224506 -80.19140625 8.67651367 C-75.11809125 7.08216245 -69.04371002 5.42905289 -64.0625 8 C-62.35699294 11.21036623 -62.29565596 14.39299727 -62 18 C-61.01 18 -60.02 18 -59 18 C-59 16.68 -59 15.36 -59 14 C-58.04480469 13.89042969 -57.08960938 13.78085937 -56.10546875 13.66796875 C-49.94292115 12.91224257 -44.07465889 12.15748668 -38.125 10.3125 C-33.30378907 8.91858805 -28.80427729 8.14606727 -24 10 C-21.4375 13.0625 -21.4375 13.0625 -20 16 C-19.67 15.34 -19.34 14.68 -19 14 C-17.35 14 -15.7 14 -14 14 C-13.01 17.465 -13.01 17.465 -12 21 C-9.03 20.67 -6.06 20.34 -3 20 C-3 19.34 -3 18.68 -3 18 C0.55710481 18.6097894 3.81080586 19.27611127 7 21 C8.3125 23.625 8.3125 23.625 9 26 C10.32 24.68 11.64 23.36 13 22 C11.68228322 19.05315679 10.29435419 17.08947478 7.92578125 14.90625 C7.34119141 14.35066406 6.75660156 13.79507812 6.15429688 13.22265625 C4.92016781 12.0683595 3.68050187 10.91995593 2.43554688 9.77734375 C1.85482422 9.22175781 1.27410156 8.66617187 0.67578125 8.09375 C0.13864502 7.59552734 -0.39849121 7.09730469 -0.9519043 6.58398438 C-2 5 -2 5 -1.72973633 2.86914062 C-1 1 -1 1 0 0 Z M-22 19 C-22.66 20.32 -23.32 21.64 -24 23 C-23.34 23 -22.68 23 -22 23 C-21.67 21.68 -21.34 20.36 -21 19 C-21.33 19 -21.66 19 -22 19 Z M-82 22 C-82 22.66 -82 23.32 -82 24 C-83.65 24.33 -85.3 24.66 -87 25 C-87 25.66 -87 26.32 -87 27 C-85.02 27 -83.04 27 -81 27 C-80.67 25.35 -80.34 23.7 -80 22 C-80.66 22 -81.32 22 -82 22 Z " fill="#C1EFF3" transform="translate(143,6)"/>
<path d="M0 0 C1.70550706 3.21036623 1.76684404 6.39299727 2.0625 10 C3.3825 10 4.7025 10 6.0625 10 C6.0897415 11.41655793 6.10900467 12.83327045 6.125 14.25 C6.13660156 15.03890625 6.14820313 15.8278125 6.16015625 16.640625 C6.06635306 18.90691002 5.69491063 20.8288895 5.0625 23 C4.4025 23.103125 3.7425 23.20625 3.0625 23.3125 C0.57451674 23.88266283 -1.41776048 24.58728348 -3.75 25.5625 C-7.96869664 27.21783621 -11.43628864 27.24113632 -15.9375 27 C-16.4325 25.02 -16.4325 25.02 -16.9375 23 C-20.5675 23 -24.1975 23 -27.9375 23 C-27.9375 21.35 -27.9375 19.7 -27.9375 18 C-29.41949902 18.44909061 -30.89805236 18.90956564 -32.375 19.375 C-33.19871094 19.63023438 -34.02242187 19.88546875 -34.87109375 20.1484375 C-37.11548016 20.80882227 -37.11548016 20.80882227 -37.9375 23 C-39.70799689 23.05410687 -41.47896849 23.09284119 -43.25 23.125 C-44.72919922 23.15980469 -44.72919922 23.15980469 -46.23828125 23.1953125 C-48.9375 23 -48.9375 23 -51.9375 21 C-53.70554332 18.43633719 -53.98915026 17.37876854 -53.5625 14.25 C-53.35625 13.5075 -53.15 12.765 -52.9375 12 C-51.2875 11.67 -49.6375 11.34 -47.9375 11 C-48.2675 9.35 -48.5975 7.7 -48.9375 6 C-46.5625 5.8125 -46.5625 5.8125 -43.9375 6 C-42.9475 7.485 -42.9475 7.485 -41.9375 9 C-40.9475 8.67 -39.9575 8.34 -38.9375 8 C-38.6075 7.34 -38.2775 6.68 -37.9375 6 C-36.03125 5.54296875 -36.03125 5.54296875 -33.4375 5.1875 C-27.47257504 4.22843363 -21.8553076 2.56224506 -16.12890625 0.67651367 C-11.05559125 -0.91783755 -4.98121002 -2.57094711 0 0 Z M-17.9375 14 C-17.9375 14.66 -17.9375 15.32 -17.9375 16 C-19.5875 16.33 -21.2375 16.66 -22.9375 17 C-22.9375 17.66 -22.9375 18.32 -22.9375 19 C-20.9575 19 -18.9775 19 -16.9375 19 C-16.6075 17.35 -16.2775 15.7 -15.9375 14 C-16.5975 14 -17.2575 14 -17.9375 14 Z " fill="#C2F0F4" transform="translate(78.9375,14)"/>
<path d="M0 0 C2.97 0 5.94 0 9 0 C9 1.32 9 2.64 9 4 C7.35 4 5.7 4 4 4 C4 4.99 4 5.98 4 7 C5.65 7 7.3 7 9 7 C9.33 7.99 9.66 8.98 10 10 C9 11 9 11 6.4375 11.0625 C5.633125 11.041875 4.82875 11.02125 4 11 C4 11.66 4 12.32 4 13 C5.98 13 7.96 13 10 13 C10.28875 11.865625 10.5775 10.73125 10.875 9.5625 C11.24625 8.386875 11.6175 7.21125 12 6 C12.66 5.67 13.32 5.34 14 5 C14.65213292 2.97536745 14.65213292 2.97536745 15 1 C16.43655854 0.91868537 17.8744483 0.86066441 19.3125 0.8125 C20.51326172 0.76029297 20.51326172 0.76029297 21.73828125 0.70703125 C24 1 24 1 25.80859375 2.359375 C27 4 27 4 26.75 6.4375 C26.29474153 7.99296644 25.80387011 9.53935719 25.25 11.0625 C24.76775655 13.16696472 24.76775655 13.16696472 26.4375 15.25 C27.2109375 16.11625 27.2109375 16.11625 28 17 C22.06561592 20.07708804 17.70126536 21.48736475 11 21 C10.67 19.68 10.34 18.36 10 17 C6.37 17 2.74 17 -1 17 C-0.67 11.39 -0.34 5.78 0 0 Z " fill="#BDEDF2" transform="translate(52,20)"/>
<path d="M0 0 C3.96692797 0.38285974 5.83740378 2.48951331 8.546875 5.25390625 C9.39121094 6.10791016 10.23554688 6.96191406 11.10546875 7.84179688 C11.97816406 8.73962891 12.85085937 9.63746094 13.75 10.5625 C14.63816406 11.46419922 15.52632812 12.36589844 16.44140625 13.29492188 C18.63448315 15.52337098 20.82026044 17.75851593 23 20 C20.70821345 25.44713342 16.20138563 29.208343 12.09667969 33.32885742 C10.62434584 34.81315947 9.1716937 36.31510259 7.71875 37.81835938 C6.79320312 38.75099609 5.86765625 39.68363281 4.9140625 40.64453125 C4.0679541 41.50409424 3.2218457 42.36365723 2.35009766 43.24926758 C0 45 0 45 -2.30712891 44.7722168 C-4 44 -4 44 -4.7578125 42.27734375 C-5 40 -5 40 -3.3046875 37.81640625 C-2.10199219 36.70072266 -2.10199219 36.70072266 -0.875 35.5625 C-0.04355469 34.77617188 0.78789062 33.98984375 1.64453125 33.1796875 C2.42183594 32.46039063 3.19914063 31.74109375 4 31 C4.928125 30.071875 5.85625 29.14375 6.8125 28.1875 C8.875 26.125 10.9375 24.0625 13 22 C11.68228322 19.05315679 10.29435419 17.08947478 7.92578125 14.90625 C7.34119141 14.35066406 6.75660156 13.79507812 6.15429688 13.22265625 C4.92016781 12.0683595 3.68050187 10.91995593 2.43554688 9.77734375 C1.85482422 9.22175781 1.27410156 8.66617187 0.67578125 8.09375 C-0.1299231 7.34641602 -0.1299231 7.34641602 -0.9519043 6.58398438 C-2 5 -2 5 -1.72973633 2.86914062 C-1 1 -1 1 0 0 Z " fill="#2E84B9" transform="translate(143,6)"/>
<path d="M0 0 C1.32 0.66 2.64 1.32 4 2 C4 5 4 5 2.34765625 6.99291992 C1.21650391 8.10050659 1.21650391 8.10050659 0.0625 9.23046875 C-0.74960937 10.03291016 -1.56171875 10.83535156 -2.3984375 11.66210938 C-3.25695312 12.49548828 -4.11546875 13.32886719 -5 14.1875 C-5.85851562 15.03248047 -6.71703125 15.87746094 -7.6015625 16.74804688 C-9.7278365 18.83888298 -11.86078464 20.92241983 -14 23 C-12.6415798 26.04332765 -11.11536976 28.12309151 -8.7421875 30.453125 C-8.11699219 31.071875 -7.49179687 31.690625 -6.84765625 32.328125 C-6.19667969 32.96234375 -5.54570312 33.5965625 -4.875 34.25 C-4.21628906 34.8996875 -3.55757812 35.549375 -2.87890625 36.21875 C-1.25703357 37.81711727 0.3693281 39.41061897 2 41 C0.25 44.875 0.25 44.875 -2 46 C-7.61682832 41.42928584 -12.51922228 36.40273454 -17.31762695 31.00097656 C-19.83698888 28.10308984 -19.83698888 28.10308984 -23 26 C-22.50743514 21.72819857 -20.06985793 19.72580322 -17.08984375 16.796875 C-16.60294571 16.3142218 -16.11604767 15.8315686 -15.61439514 15.33428955 C-14.0623455 13.7989915 -12.50017864 12.27447075 -10.9375 10.75 C-9.88147643 9.7090278 -8.82612962 8.6673686 -7.77148438 7.625 C-5.18878585 5.07532367 -2.59691118 2.53520804 0 0 Z " fill="#2C83B8" transform="translate(33,5)"/>
<path d="M0 0 C2.375 -0.1875 2.375 -0.1875 5 0 C5.66 0.99 6.32 1.98 7 3 C7.99 2.67 8.98 2.34 10 2 C10.33 1.34 10.66 0.68 11 0 C12.65 0 14.3 0 16 0 C15.80664062 0.556875 15.61328125 1.11375 15.4140625 1.6875 C13.68625575 6.75117127 12.2306933 11.79322065 11 17 C9.22950311 17.05410687 7.45853151 17.09284119 5.6875 17.125 C4.20830078 17.15980469 4.20830078 17.15980469 2.69921875 17.1953125 C0 17 0 17 -3 15 C-4.76804332 12.43633719 -5.05165026 11.37876854 -4.625 8.25 C-4.41875 7.5075 -4.2125 6.765 -4 6 C-2.35 5.67 -0.7 5.34 1 5 C0.67 3.35 0.34 1.7 0 0 Z " fill="#3389BB" transform="translate(30,20)"/>
<path d="M0 0 C8.44827586 1.44827586 8.44827586 1.44827586 11 4 C11.29356154 7.62059232 10.85064319 9.87703962 9 13 C7.02 13 5.04 13 3 13 C2.67 13.99 2.34 14.98 2 16 C1.01 16 0.02 16 -1 16 C-1.33 15.34 -1.66 14.68 -2 14 C-2.61875 13.938125 -3.2375 13.87625 -3.875 13.8125 C-6 13 -6 13 -7.75 9.625 C-9 6 -9 6 -9 3 C-4.545 2.505 -4.545 2.505 0 2 C0 1.34 0 0.68 0 0 Z " fill="#B3E4ED" transform="translate(140,24)"/>
<path d="M0 0 C8 0 8 0 10.5 1 C12.45575999 3.60767999 12.56578243 5.85308669 12.37109375 9.0625 C12 11 12 11 10.5625 13.4375 C6.76378428 15.75379007 3.42341341 15.73979921 -1 16 C-0.67 10.72 -0.34 5.44 0 0 Z " fill="#2F86BA" transform="translate(101,21)"/>
<path d="M0 0 C1.65 0 3.3 0 5 0 C5.83698386 2.45714547 6.66972424 4.91558857 7.5 7.375 C7.73847656 8.07367188 7.97695312 8.77234375 8.22265625 9.4921875 C10 14.7734375 10 14.7734375 10 17 C8.68 17 7.36 17 6 17 C6 15.68 6 14.36 6 13 C3.69 13 1.38 13 -1 13 C-1 14.32 -1 15.64 -1 17 C-2.32 17 -3.64 17 -5 17 C-3.96232949 10.93267948 -2.66038099 5.5626148 0 0 Z " fill="#2B83B8" transform="translate(124,20)"/>
<path d="M0 0 C2.97 0 5.94 0 9 0 C9 1.32 9 2.64 9 4 C7.35 4 5.7 4 4 4 C4 4.99 4 5.98 4 7 C5.65 7 7.3 7 9 7 C9.33 7.99 9.66 8.98 10 10 C9 11 9 11 6.4375 11.0625 C5.633125 11.041875 4.82875 11.02125 4 11 C4 11.66 4 12.32 4 13 C5.98 13 7.96 13 10 13 C10 14.32 10 15.64 10 17 C6.37 17 2.74 17 -1 17 C-0.67 11.39 -0.34 5.78 0 0 Z " fill="#3188BB" transform="translate(52,20)"/>
<path d="M0 0 C3.3 0 6.6 0 10 0 C10 1.32 10 2.64 10 4 C8.35 4 6.7 4 5 4 C5 4.99 5 5.98 5 7 C6.65 7 8.3 7 10 7 C10 7.99 10 8.98 10 10 C8.35 10 6.7 10 5 10 C5 10.99 5 11.98 5 13 C6.98 13 8.96 13 11 13 C11 14.32 11 15.64 11 17 C7.37 17 3.74 17 0 17 C0 11.39 0 5.78 0 0 Z " fill="#2D85B9" transform="translate(84,20)"/>
<path d="M0 0 C7.37042925 -0.36248013 7.37042925 -0.36248013 10.0625 1.1875 C11.40531025 3.78359981 10.80703471 5.2426314 10 8 C9.7525 8.680625 9.505 9.36125 9.25 10.0625 C8.76775655 12.16696472 8.76775655 12.16696472 10.4375 14.25 C10.953125 14.8275 11.46875 15.405 12 16 C9.0625 15.1875 9.0625 15.1875 6 14 C5.67 13.01 5.34 12.02 5 11 C4.34 11 3.68 11 3 11 C3 12.32 3 13.64 3 15 C2.01 15 1.02 15 0 15 C0 10.05 0 5.1 0 0 Z " fill="#2C85B9" transform="translate(68,21)"/>
<path d="M0 0 C2 1 2 1 3.8125 4.3125 C5.32117438 8.99733096 5.32117438 8.99733096 4 12 C0.6875 11.8125 0.6875 11.8125 -3 11 C-5 8.75 -5 8.75 -6 6 C-5.6875 3.1875 -5.6875 3.1875 -5 1 C-2 0 -2 0 0 0 Z " fill="#C4F2F4" transform="translate(31,25)"/>
<path d="M0 0 C1.65 0 3.3 0 5 0 C4.01 2.97 3.02 5.94 2 9 C0.35 9.33 -1.3 9.66 -3 10 C-3.66 8.02 -4.32 6.04 -5 4 C-4.360625 3.71125 -3.72125 3.4225 -3.0625 3.125 C-0.84793921 2.17176549 -0.84793921 2.17176549 0 0 Z " fill="#3389BC" transform="translate(41,20)"/>
<path d="M0 0 C2.375 -0.125 2.375 -0.125 5 0 C7 2 7 2 7.25 4.5 C7 7 7 7 5 9 C2.375 9.125 2.375 9.125 0 9 C0 6.03 0 3.06 0 0 Z " fill="#69A8CF" transform="translate(38,54)"/>
<path d="M0 0 C1.67542976 0.28604898 3.34385343 0.61781233 5 1 C5.125 6.75 5.125 6.75 4 9 C2.35 9 0.7 9 -1 9 C-1.97812643 5.95694001 -2.04560527 4.0322553 -1 1 C-0.67 0.67 -0.34 0.34 0 0 Z " fill="#2882BA" transform="translate(53,56)"/>
<path d="M0 0 C2.31 0 4.62 0 7 0 C7 0.66 7 1.32 7 2 C5.68 2 4.36 2 3 2 C3.185625 3.03125 3.37125 4.0625 3.5625 5.125 C3.97307082 8.76148442 3.778309 11.45437009 3 15 C2.01 15 1.02 15 0 15 C0 10.05 0 5.1 0 0 Z " fill="#2681B7" transform="translate(68,21)"/>
<path d="M0 0 C0.09765625 6.15234375 0.09765625 6.15234375 0 8 C-1 9 -1 9 -3.5625 9.0625 C-4.366875 9.041875 -5.17125 9.02125 -6 9 C-6 6.36 -6 3.72 -6 1 C-4 0 -4 0 0 0 Z " fill="#3489BE" transform="translate(138,56)"/>
<path d="M0 0 C0.66 0 1.32 0 2 0 C2.99 3.96 3.98 7.92 5 12 C3.68 12 2.36 12 1 12 C1 10.68 1 9.36 1 8 C-0.98 8 -2.96 8 -5 8 C-4.67 7.34 -4.34 6.68 -4 6 C-3.01 6 -2.02 6 -1 6 C-1.020625 5.195625 -1.04125 4.39125 -1.0625 3.5625 C-1 1 -1 1 0 0 Z " fill="#2983B8" transform="translate(129,25)"/>
<path d="M0 0 C2.97 0.495 2.97 0.495 6 1 C5.8125 2.875 5.8125 2.875 5 5 C1.3382625 7.09242143 -1.84532871 7.19324053 -6 7 C-6 6.01 -6 5.02 -6 4 C-4.35 4 -2.7 4 -1 4 C-0.67 2.68 -0.34 1.36 0 0 Z " fill="#E3F8FA" transform="translate(95,26)"/>
<path d="M0 0 C2 2 2 2 2 5 C1.0409375 5.37125 1.0409375 5.37125 0.0625 5.75 C-2.18741541 6.81562433 -2.18741541 6.81562433 -2.75 9.125 C-2.8325 9.74375 -2.915 10.3625 -3 11 C-4.32 11 -5.64 11 -7 11 C-6.34 7.7 -5.68 4.4 -5 1 C-4.01 1.33 -3.02 1.66 -2 2 C-1.34 1.34 -0.68 0.68 0 0 Z " fill="#56A0C8" transform="translate(126,26)"/>
<path d="M0 0 C1.2065625 0.0309375 1.2065625 0.0309375 2.4375 0.0625 C2.4375 2.3725 2.4375 4.6825 2.4375 7.0625 C0.0625 7.1875 0.0625 7.1875 -2.5625 7.0625 C-3.2225 6.4025 -3.8825 5.7425 -4.5625 5.0625 C-3.80953264 0.09291543 -3.80953264 0.09291543 0 0 Z " fill="#569DC9" transform="translate(73.5625,55.9375)"/>
<path d="M0 0 C1.32 0.99 2.64 1.98 4 3 C3.67 4.65 3.34 6.3 3 8 C2.67 7.34 2.34 6.68 2 6 C0.02 6.33 -1.96 6.66 -4 7 C-4 5.35 -4 3.7 -4 2 C-2.68 2 -1.36 2 0 2 C0 1.34 0 0.68 0 0 Z " fill="#67AFD0" transform="translate(75,21)"/>
<path d="M0 0 C4 1 4 1 5 2 C5.1875 4.4375 5.1875 4.4375 5 7 C4.34 7.66 3.68 8.32 3 9 C2.01 9 1.02 9 0 9 C0 6.03 0 3.06 0 0 Z " fill="#C0EDF2" transform="translate(105,24)"/>
<path d="M0 0 C1.32 0 2.64 0 4 0 C4 2.31 4 4.62 4 7 C2.35 7 0.7 7 -1 7 C-1.625 4.625 -1.625 4.625 -2 2 C-1.34 1.34 -0.68 0.68 0 0 Z " fill="#589EC9" transform="translate(101,56)"/>
<path d="M0 0 C2.125 0.375 2.125 0.375 4 1 C4.625 2.875 4.625 2.875 5 5 C4.34 5.66 3.68 6.32 3 7 C0.875 6.625 0.875 6.625 -1 6 C-1.625 4.125 -1.625 4.125 -2 2 C-1.34 1.34 -0.68 0.68 0 0 Z " fill="#2380B8" transform="translate(93,56)"/>
<path d="M0 0 C1.67542976 0.28604898 3.34385343 0.61781233 5 1 C5 2.98 5 4.96 5 7 C3.02 7 1.04 7 -1 7 C-1.04254356 5.00045254 -1.04080783 2.99958364 -1 1 C-0.67 0.67 -0.34 0.34 0 0 Z " fill="#3B8DC0" transform="translate(125,56)"/>
<path d="M0 0 C1.15941038 3.47823115 0.70820884 5.45895578 0 9 C-1.65 9 -3.3 9 -5 9 C-5 7.35 -5 5.7 -5 4 C-4.01 4 -3.02 4 -2 4 C-1.34 2.68 -0.68 1.36 0 0 Z " fill="#247FB6" transform="translate(41,28)"/>
<path d="M0 0 C2.475 0.495 2.475 0.495 5 1 C5 2.98 5 4.96 5 7 C3.35 7 1.7 7 0 7 C0 4.69 0 2.38 0 0 Z " fill="#3087BD" transform="translate(113,56)"/>
<path d="M0 0 C0.99 0.33 1.98 0.66 3 1 C3 3.64 3 6.28 3 9 C2.01 9.33 1.02 9.66 0 10 C0 6.7 0 3.4 0 0 Z " fill="#368ABF" transform="translate(87,53)"/>
<path d="M0 0 C1.32 0.33 2.64 0.66 4 1 C3.01 2.98 2.02 4.96 1 7 C0.01 7 -0.98 7 -2 7 C-1.125 2.25 -1.125 2.25 0 0 Z " fill="#3489BB" transform="translate(141,33)"/>
<path d="M0 0 C0.66 0 1.32 0 2 0 C2 1.65 2 3.3 2 5 C-3.75 6.125 -3.75 6.125 -6 5 C-6 4.34 -6 3.68 -6 3 C-4.02 2.34 -2.04 1.68 0 1 C0 0.67 0 0.34 0 0 Z " fill="#D1F6F7" transform="translate(49,27)"/>
<path d="M0 0 C1.98 0 3.96 0 6 0 C5.6875 1.9375 5.6875 1.9375 5 4 C4.01 4.33 3.02 4.66 2 5 C1.34 4.67 0.68 4.34 0 4 C0 2.68 0 1.36 0 0 Z " fill="#D3F6F8" transform="translate(134,33)"/>
<path d="M0 0 C0.66 0.33 1.32 0.66 2 1 C1.1875 2.9375 1.1875 2.9375 0 5 C-3.28976808 6.09658936 -4.71303767 5.79953138 -8 5 C-8 4.34 -8 3.68 -8 3 C-6.865625 2.87625 -5.73125 2.7525 -4.5625 2.625 C-3.386875 2.41875 -2.21125 2.2125 -1 2 C-0.67 1.34 -0.34 0.68 0 0 Z " fill="#D2F3F6" transform="translate(64,22)"/>
<path d="M0 0 C0.99 0 1.98 0 3 0 C3 2.64 3 5.28 3 8 C2.01 8 1.02 8 0 8 C0 5.36 0 2.72 0 0 Z " fill="#2983BB" transform="translate(120,55)"/>
<path d="M0 0 C1.32 0 2.64 0 4 0 C3.67 2.31 3.34 4.62 3 7 C2.01 7 1.02 7 0 7 C0 4.69 0 2.38 0 0 Z " fill="#3F8FC1" transform="translate(107,56)"/>
<path d="M0 0 C0.99 0 1.98 0 3 0 C3 2.64 3 5.28 3 8 C2.01 8 1.02 8 0 8 C0 5.36 0 2.72 0 0 Z " fill="#2E85BC" transform="translate(47,55)"/>
<path d="M0 0 C1.2077558 3.62326739 0.54311128 4.64146369 -1 8 C-1.66 7.67 -2.32 7.34 -3 7 C-3.625 4.4375 -3.625 4.4375 -4 2 C-2.68 1.34 -1.36 0.68 0 0 Z " fill="#C2EFF3" transform="translate(40,22)"/>
<path d="M0 0 C0.66 0 1.32 0 2 0 C2.98120464 3.05263664 2.98120464 4.94736336 2 8 C1.34 8 0.68 8 0 8 C-0.66 6.02 -1.32 4.04 -2 2 C-1.34 1.34 -0.68 0.68 0 0 Z " fill="#2C85BC" transform="translate(65,55)"/>
<path d="M0 0 C0.66 0 1.32 0 2 0 C2 3.3 2 6.6 2 10 C1.34 10 0.68 10 0 10 C0 6.7 0 3.4 0 0 Z " fill="#1E7DB7" transform="translate(78,53)"/>
<path d="M0 0 C2.97 0.33 5.94 0.66 9 1 C5.5647952 3.29013653 4.014669 3.17842973 0 3 C0 2.01 0 1.02 0 0 Z " fill="#D7F4F7" transform="translate(89,30)"/>
<path d="M0 0 C0.99 0.33 1.98 0.66 3 1 C3 1.99 3 2.98 3 4 C1.35 4.66 -0.3 5.32 -2 6 C-1.34 4.02 -0.68 2.04 0 0 Z " fill="#87B9D8" transform="translate(53,58)"/>
<path d="M0 0 C0.99 0.66 1.98 1.32 3 2 C2.67 3.32 2.34 4.64 2 6 C1.67 5.34 1.34 4.68 1 4 C0.01 4 -0.98 4 -2 4 C-1.34 2.68 -0.68 1.36 0 0 Z " fill="#5FA2CB" transform="translate(95,56)"/>
<path d="M0 0 C1.32 0 2.64 0 4 0 C3.67 1.65 3.34 3.3 3 5 C2.01 5 1.02 5 0 5 C0 3.35 0 1.7 0 0 Z " fill="#88BAD9" transform="translate(134,56)"/>
<path d="M0 0 C0.66 0 1.32 0 2 0 C2 2.64 2 5.28 2 8 C1.34 8 0.68 8 0 8 C0 5.36 0 2.72 0 0 Z " fill="#1879B5" transform="translate(60,55)"/>
</svg>
